# xmcd
#
# Track frame offsets:
#	150
#	15605
#	29835
#	46667
#	62992
#	75489
#	91375
#	110171
#	122256
#	135961
#	148395
#	161384
#	181258
#	199044
#	217611
#	235658
#	251078
#	265140
#	280774
#	295996
#	308802
#
# Disc length: 4338 seconds
#
# Revision: 1
# Processed by: cddbd v1.5.2PL0 Copyright (c) Steve Scherf et al.
# Submitted via: audiograbber 1.83.01
#
DISCID=2410f015
DTITLE=Various Artist - Halland's Country Hits Volume 1
DYEAR=1900
DGENRE=
TTITLE0=Kathy Mattea - Walking Away A Winner
TTITLE1=The Mavericks - Oh What A Thrill
TTITLE2=Neal McCoy - No Doubt About It
TTITLE3=Neal McCoy - The City Put The Country Back In Me
TTITLE4=Neal McCoy - Wink
TTITLE5=Reba McEntire - Why Haven't I Heard From You
TTITLE6=Tim McGraw - Don't Make The Girl
TTITLE7=Tim McGraw - Down On The Farm
TTITLE8=Tim McGraw - Indian Outlaw
TTITLE9=Ken Mellons - Jukebox Junkie
TTITLE10=John Michael Montgomery - Be My Baby Tonight
TTITLE11=John Michael Montgomery - I Swear
TTITLE12=John Michael Montgomery - Rope The Moon
TTITLE13=Lee Roy Parnell - I'm Holding My Own
TTITLE14=Collin Raye - Little Rock
TTITLE15=Collin Raye - Man Of My Word
TTITLE16=Collin Raye - That's My Story
TTITLE17=Sawyer Brown - Hard To Say
TTITLE18=Sawyer Brown - The Boys And Me
TTITLE19=Shenandoah - If Bubba Can Dance (I Can Too)
TTITLE20=Shenandoah - I Want To Be Loved Like That
EXTD=
EXTT0=
EXTT1=
EXTT2=
EXTT3=
EXTT4=
EXTT5=
EXTT6=
EXTT7=
EXTT8=
EXTT9=
EXTT10=
EXTT11=
EXTT12=
EXTT13=
EXTT14=
EXTT15=
EXTT16=
EXTT17=
EXTT18=
EXTT19=
EXTT20=
PLAYORDER=
